<mxfile host="app.diagrams.net" modified="2021-10-17T08:18:16.929Z" agent="5.0 (Windows NT 10.0; Win64; x64) AppleWebKit/537.36 (KHTML, like Gecko) Chrome/94.0.4606.81 Safari/537.36" etag="hnQWg6JzWEvambi6R9QH" version="15.0.3" type="github">
  <diagram id="Rj9fW2TbAk-QOheyP9d9" name="第 1 页">
    <mxGraphModel dx="2062" dy="1177" grid="1" gridSize="10" guides="1" tooltips="1" connect="1" arrows="1" fold="1" page="1" pageScale="1" pageWidth="827" pageHeight="1169" math="0" shadow="0">
      <root>
        <mxCell id="0" />
        <mxCell id="1" parent="0" />
        <mxCell id="RlPlBZCllbLlyT69JNLf-29" value="" style="group" vertex="1" connectable="0" parent="1">
          <mxGeometry x="40" y="1000" width="880" height="120" as="geometry" />
        </mxCell>
        <mxCell id="RlPlBZCllbLlyT69JNLf-24" value="" style="rounded=1;whiteSpace=wrap;html=1;dashed=1;strokeWidth=2;gradientColor=#ffffff;strokeColor=#00994D;" vertex="1" parent="RlPlBZCllbLlyT69JNLf-29">
          <mxGeometry width="880.0000000000001" height="120" as="geometry" />
        </mxCell>
        <mxCell id="RlPlBZCllbLlyT69JNLf-25" value="&lt;span style=&quot;font-size: 25px&quot;&gt;&lt;b&gt;运维 &amp;amp; 测试&lt;/b&gt;&lt;/span&gt;" style="text;html=1;strokeColor=none;fillColor=none;align=center;verticalAlign=middle;whiteSpace=wrap;rounded=0;dashed=1;" vertex="1" parent="RlPlBZCllbLlyT69JNLf-29">
          <mxGeometry x="299.71014492753625" y="10" width="280.57971014492756" height="20" as="geometry" />
        </mxCell>
        <mxCell id="RlPlBZCllbLlyT69JNLf-26" value="&lt;font size=&quot;1&quot;&gt;&lt;b style=&quot;font-size: 20px&quot;&gt;自动化测试组&lt;/b&gt;&lt;/font&gt;" style="rounded=1;whiteSpace=wrap;html=1;strokeWidth=1;fillColor=#d5e8d4;gradientColor=#ffffff;strokeColor=none;" vertex="1" parent="RlPlBZCllbLlyT69JNLf-29">
          <mxGeometry x="25.507246376811597" y="50" width="242.31884057971016" height="50" as="geometry" />
        </mxCell>
        <mxCell id="RlPlBZCllbLlyT69JNLf-27" value="&lt;span style=&quot;font-size: 20px&quot;&gt;&lt;b&gt;业务测试组&lt;/b&gt;&lt;/span&gt;" style="rounded=1;whiteSpace=wrap;html=1;strokeWidth=1;fillColor=#d5e8d4;gradientColor=#ffffff;strokeColor=none;" vertex="1" parent="RlPlBZCllbLlyT69JNLf-29">
          <mxGeometry x="323.9420289855073" y="50" width="242.31884057971016" height="50" as="geometry" />
        </mxCell>
        <mxCell id="RlPlBZCllbLlyT69JNLf-28" value="&lt;span style=&quot;font-size: 20px&quot;&gt;&lt;b&gt;运维组&lt;/b&gt;&lt;/span&gt;" style="rounded=1;whiteSpace=wrap;html=1;strokeWidth=1;fillColor=#d5e8d4;gradientColor=#ffffff;strokeColor=none;" vertex="1" parent="RlPlBZCllbLlyT69JNLf-29">
          <mxGeometry x="612.1739130434783" y="50" width="242.31884057971016" height="50" as="geometry" />
        </mxCell>
        <mxCell id="RlPlBZCllbLlyT69JNLf-30" value="&lt;span style=&quot;font-size: 42px&quot;&gt;技 术 平 台 团 队&lt;/span&gt;" style="rounded=1;whiteSpace=wrap;html=1;fillColor=#b0e3e6;gradientColor=#ffffff;strokeColor=none;" vertex="1" parent="1">
          <mxGeometry x="960" y="210" width="330" height="910" as="geometry" />
        </mxCell>
        <mxCell id="RlPlBZCllbLlyT69JNLf-39" value="" style="group" vertex="1" connectable="0" parent="1">
          <mxGeometry x="30" y="210" width="420" height="750" as="geometry" />
        </mxCell>
        <mxCell id="RlPlBZCllbLlyT69JNLf-37" value="" style="rounded=1;whiteSpace=wrap;html=1;strokeWidth=1;fillColor=#f5f5f5;strokeColor=#666666;fontColor=#333333;gradientColor=#ffffff;" vertex="1" parent="RlPlBZCllbLlyT69JNLf-39">
          <mxGeometry width="420" height="750" as="geometry" />
        </mxCell>
        <mxCell id="RlPlBZCllbLlyT69JNLf-22" value="" style="rounded=1;whiteSpace=wrap;html=1;dashed=1;strokeWidth=2;strokeColor=#6c8ebf;fillColor=#dae8fc;gradientColor=#ffffff;" vertex="1" parent="RlPlBZCllbLlyT69JNLf-39">
          <mxGeometry x="50" y="80" width="320" height="310" as="geometry" />
        </mxCell>
        <mxCell id="RlPlBZCllbLlyT69JNLf-23" value="&lt;span style=&quot;font-size: 25px&quot;&gt;&lt;b&gt;产品组A&lt;/b&gt;&lt;/span&gt;" style="text;html=1;strokeColor=none;fillColor=none;align=center;verticalAlign=middle;whiteSpace=wrap;rounded=0;dashed=1;" vertex="1" parent="RlPlBZCllbLlyT69JNLf-39">
          <mxGeometry x="95" y="100" width="220" height="20" as="geometry" />
        </mxCell>
        <mxCell id="RlPlBZCllbLlyT69JNLf-36" value="" style="group" vertex="1" connectable="0" parent="RlPlBZCllbLlyT69JNLf-39">
          <mxGeometry x="50" y="420" width="310" height="290" as="geometry" />
        </mxCell>
        <mxCell id="RlPlBZCllbLlyT69JNLf-17" value="" style="rounded=1;whiteSpace=wrap;html=1;dashed=1;strokeColor=#666666;strokeWidth=2;fillColor=#f5f5f5;fontColor=#333333;gradientColor=#ffffff;" vertex="1" parent="RlPlBZCllbLlyT69JNLf-36">
          <mxGeometry width="310" height="290" as="geometry" />
        </mxCell>
        <mxCell id="RlPlBZCllbLlyT69JNLf-13" value="" style="group" vertex="1" connectable="0" parent="RlPlBZCllbLlyT69JNLf-36">
          <mxGeometry x="160" y="41.111111111111086" width="120" height="217.7777777777778" as="geometry" />
        </mxCell>
        <mxCell id="RlPlBZCllbLlyT69JNLf-32" value="" style="rounded=1;whiteSpace=wrap;html=1;gradientColor=#ffffff;fillColor=#DEDEDE;strokeColor=none;" vertex="1" parent="RlPlBZCllbLlyT69JNLf-13">
          <mxGeometry x="-140" width="120" height="217.7777777777778" as="geometry" />
        </mxCell>
        <mxCell id="RlPlBZCllbLlyT69JNLf-14" value="" style="rounded=1;whiteSpace=wrap;html=1;gradientColor=#ffffff;strokeColor=none;fillColor=#DEDEDE;" vertex="1" parent="RlPlBZCllbLlyT69JNLf-13">
          <mxGeometry width="120" height="217.7777777777778" as="geometry" />
        </mxCell>
        <mxCell id="RlPlBZCllbLlyT69JNLf-15" value="&lt;b&gt;&lt;font style=&quot;font-size: 15px&quot;&gt;后端主程&lt;/font&gt;&lt;/b&gt;" style="rounded=1;whiteSpace=wrap;html=1;fillColor=#e1d5e7;strokeColor=none;" vertex="1" parent="RlPlBZCllbLlyT69JNLf-13">
          <mxGeometry x="10" y="15.555555555555559" width="100" height="41.48148148148149" as="geometry" />
        </mxCell>
        <mxCell id="RlPlBZCllbLlyT69JNLf-16" value="&lt;b&gt;&lt;font style=&quot;font-size: 15px&quot;&gt;后端组员&lt;/font&gt;&lt;/b&gt;" style="rounded=1;whiteSpace=wrap;html=1;fillColor=#e1d5e7;gradientColor=#ffffff;strokeColor=none;" vertex="1" parent="RlPlBZCllbLlyT69JNLf-13">
          <mxGeometry x="10" y="72.5925925925926" width="100" height="124.44444444444447" as="geometry" />
        </mxCell>
        <mxCell id="RlPlBZCllbLlyT69JNLf-33" value="&lt;b&gt;&lt;font style=&quot;font-size: 15px&quot;&gt;前端主程&lt;/font&gt;&lt;/b&gt;" style="rounded=1;whiteSpace=wrap;html=1;fillColor=#f8cecc;gradientColor=#ffffff;strokeColor=none;" vertex="1" parent="RlPlBZCllbLlyT69JNLf-13">
          <mxGeometry x="-130" y="15.555555555555559" width="100" height="41.48148148148149" as="geometry" />
        </mxCell>
        <mxCell id="RlPlBZCllbLlyT69JNLf-34" value="&lt;b&gt;&lt;font style=&quot;font-size: 15px&quot;&gt;前端组员&lt;/font&gt;&lt;/b&gt;" style="rounded=1;whiteSpace=wrap;html=1;fillColor=#f8cecc;gradientColor=#ffffff;strokeColor=none;" vertex="1" parent="RlPlBZCllbLlyT69JNLf-13">
          <mxGeometry x="-130" y="72.5925925925926" width="100" height="124.44444444444447" as="geometry" />
        </mxCell>
        <mxCell id="RlPlBZCllbLlyT69JNLf-20" value="&lt;b style=&quot;font-size: 25px&quot;&gt;开发组A&lt;/b&gt;" style="text;html=1;strokeColor=none;fillColor=none;align=center;verticalAlign=middle;whiteSpace=wrap;rounded=0;dashed=1;" vertex="1" parent="RlPlBZCllbLlyT69JNLf-36">
          <mxGeometry x="40" y="10" width="220" height="20" as="geometry" />
        </mxCell>
        <mxCell id="RlPlBZCllbLlyT69JNLf-38" value="&lt;font style=&quot;font-size: 30px&quot;&gt;&lt;b&gt;项目组A&lt;/b&gt;&lt;/font&gt;" style="text;html=1;strokeColor=none;fillColor=none;align=center;verticalAlign=middle;whiteSpace=wrap;rounded=0;" vertex="1" parent="RlPlBZCllbLlyT69JNLf-39">
          <mxGeometry x="152.5" y="20" width="125" height="20" as="geometry" />
        </mxCell>
        <mxCell id="RlPlBZCllbLlyT69JNLf-6" value="" style="group" vertex="1" connectable="0" parent="RlPlBZCllbLlyT69JNLf-39">
          <mxGeometry x="80" y="140" width="250" height="90" as="geometry" />
        </mxCell>
        <mxCell id="RlPlBZCllbLlyT69JNLf-5" value="" style="rounded=1;whiteSpace=wrap;html=1;fillColor=#f5f5f5;fontColor=#333333;gradientColor=#ffffff;strokeColor=none;" vertex="1" parent="RlPlBZCllbLlyT69JNLf-6">
          <mxGeometry width="250" height="90" as="geometry" />
        </mxCell>
        <mxCell id="RlPlBZCllbLlyT69JNLf-1" value="&lt;font style=&quot;font-size: 15px&quot;&gt;&lt;b&gt;项目(产品)经理&lt;/b&gt;&lt;/font&gt;" style="rounded=1;whiteSpace=wrap;html=1;fillColor=#dae8fc;gradientColor=#ffffff;strokeColor=none;" vertex="1" parent="RlPlBZCllbLlyT69JNLf-6">
          <mxGeometry x="10" y="20" width="140" height="50" as="geometry" />
        </mxCell>
        <mxCell id="RlPlBZCllbLlyT69JNLf-2" value="&lt;span style=&quot;font-size: 15px&quot;&gt;&lt;b&gt;项目助理&lt;/b&gt;&lt;/span&gt;" style="rounded=1;whiteSpace=wrap;html=1;fillColor=#dae8fc;gradientColor=#ffffff;strokeColor=none;" vertex="1" parent="RlPlBZCllbLlyT69JNLf-6">
          <mxGeometry x="170" y="20" width="70" height="50" as="geometry" />
        </mxCell>
        <mxCell id="RlPlBZCllbLlyT69JNLf-40" value="" style="group" vertex="1" connectable="0" parent="1">
          <mxGeometry x="500" y="210" width="420" height="750" as="geometry" />
        </mxCell>
        <mxCell id="RlPlBZCllbLlyT69JNLf-41" value="" style="rounded=1;whiteSpace=wrap;html=1;strokeWidth=1;fillColor=#f5f5f5;strokeColor=#666666;fontColor=#333333;gradientColor=#ffffff;" vertex="1" parent="RlPlBZCllbLlyT69JNLf-40">
          <mxGeometry width="420" height="750" as="geometry" />
        </mxCell>
        <mxCell id="RlPlBZCllbLlyT69JNLf-42" value="" style="rounded=1;whiteSpace=wrap;html=1;dashed=1;strokeWidth=2;strokeColor=#6c8ebf;fillColor=#dae8fc;gradientColor=#ffffff;" vertex="1" parent="RlPlBZCllbLlyT69JNLf-40">
          <mxGeometry x="50" y="80" width="320" height="310" as="geometry" />
        </mxCell>
        <mxCell id="RlPlBZCllbLlyT69JNLf-47" value="&lt;span style=&quot;font-size: 25px&quot;&gt;&lt;b&gt;产品组B&lt;/b&gt;&lt;/span&gt;" style="text;html=1;strokeColor=none;fillColor=none;align=center;verticalAlign=middle;whiteSpace=wrap;rounded=0;dashed=1;" vertex="1" parent="RlPlBZCllbLlyT69JNLf-40">
          <mxGeometry x="95" y="100" width="220" height="20" as="geometry" />
        </mxCell>
        <mxCell id="RlPlBZCllbLlyT69JNLf-48" value="" style="group" vertex="1" connectable="0" parent="RlPlBZCllbLlyT69JNLf-40">
          <mxGeometry x="50" y="420" width="310" height="290" as="geometry" />
        </mxCell>
        <mxCell id="RlPlBZCllbLlyT69JNLf-49" value="" style="rounded=1;whiteSpace=wrap;html=1;dashed=1;strokeColor=#666666;strokeWidth=2;fillColor=#f5f5f5;fontColor=#333333;gradientColor=#ffffff;" vertex="1" parent="RlPlBZCllbLlyT69JNLf-48">
          <mxGeometry width="310" height="290" as="geometry" />
        </mxCell>
        <mxCell id="RlPlBZCllbLlyT69JNLf-50" value="" style="group" vertex="1" connectable="0" parent="RlPlBZCllbLlyT69JNLf-48">
          <mxGeometry x="160" y="41.111111111111086" width="120" height="217.7777777777778" as="geometry" />
        </mxCell>
        <mxCell id="RlPlBZCllbLlyT69JNLf-51" value="" style="rounded=1;whiteSpace=wrap;html=1;gradientColor=#ffffff;fillColor=#DEDEDE;strokeColor=none;" vertex="1" parent="RlPlBZCllbLlyT69JNLf-50">
          <mxGeometry x="-140" width="120" height="217.7777777777778" as="geometry" />
        </mxCell>
        <mxCell id="RlPlBZCllbLlyT69JNLf-52" value="" style="rounded=1;whiteSpace=wrap;html=1;gradientColor=#ffffff;strokeColor=none;fillColor=#DEDEDE;" vertex="1" parent="RlPlBZCllbLlyT69JNLf-50">
          <mxGeometry width="120" height="217.7777777777778" as="geometry" />
        </mxCell>
        <mxCell id="RlPlBZCllbLlyT69JNLf-53" value="&lt;b&gt;&lt;font style=&quot;font-size: 15px&quot;&gt;后端主程&lt;/font&gt;&lt;/b&gt;" style="rounded=1;whiteSpace=wrap;html=1;fillColor=#e1d5e7;strokeColor=none;" vertex="1" parent="RlPlBZCllbLlyT69JNLf-50">
          <mxGeometry x="10" y="15.555555555555559" width="100" height="41.48148148148149" as="geometry" />
        </mxCell>
        <mxCell id="RlPlBZCllbLlyT69JNLf-54" value="&lt;b&gt;&lt;font style=&quot;font-size: 15px&quot;&gt;后端组员&lt;/font&gt;&lt;/b&gt;" style="rounded=1;whiteSpace=wrap;html=1;fillColor=#e1d5e7;gradientColor=#ffffff;strokeColor=none;" vertex="1" parent="RlPlBZCllbLlyT69JNLf-50">
          <mxGeometry x="10" y="72.5925925925926" width="100" height="124.44444444444447" as="geometry" />
        </mxCell>
        <mxCell id="RlPlBZCllbLlyT69JNLf-55" value="&lt;b&gt;&lt;font style=&quot;font-size: 15px&quot;&gt;前端主程&lt;/font&gt;&lt;/b&gt;" style="rounded=1;whiteSpace=wrap;html=1;fillColor=#f8cecc;gradientColor=#ffffff;strokeColor=none;" vertex="1" parent="RlPlBZCllbLlyT69JNLf-50">
          <mxGeometry x="-130" y="15.555555555555559" width="100" height="41.48148148148149" as="geometry" />
        </mxCell>
        <mxCell id="RlPlBZCllbLlyT69JNLf-56" value="&lt;b&gt;&lt;font style=&quot;font-size: 15px&quot;&gt;前端组员&lt;/font&gt;&lt;/b&gt;" style="rounded=1;whiteSpace=wrap;html=1;fillColor=#f8cecc;gradientColor=#ffffff;strokeColor=none;" vertex="1" parent="RlPlBZCllbLlyT69JNLf-50">
          <mxGeometry x="-130" y="72.5925925925926" width="100" height="124.44444444444447" as="geometry" />
        </mxCell>
        <mxCell id="RlPlBZCllbLlyT69JNLf-57" value="&lt;b style=&quot;font-size: 25px&quot;&gt;开发组B&lt;/b&gt;" style="text;html=1;strokeColor=none;fillColor=none;align=center;verticalAlign=middle;whiteSpace=wrap;rounded=0;dashed=1;" vertex="1" parent="RlPlBZCllbLlyT69JNLf-48">
          <mxGeometry x="40" y="10" width="220" height="20" as="geometry" />
        </mxCell>
        <mxCell id="RlPlBZCllbLlyT69JNLf-58" value="&lt;font style=&quot;font-size: 30px&quot;&gt;&lt;b&gt;项目组B&lt;/b&gt;&lt;/font&gt;" style="text;html=1;strokeColor=none;fillColor=none;align=center;verticalAlign=middle;whiteSpace=wrap;rounded=0;" vertex="1" parent="RlPlBZCllbLlyT69JNLf-40">
          <mxGeometry x="152.5" y="20" width="125" height="20" as="geometry" />
        </mxCell>
        <mxCell id="RlPlBZCllbLlyT69JNLf-43" value="" style="group" vertex="1" connectable="0" parent="RlPlBZCllbLlyT69JNLf-40">
          <mxGeometry x="80" y="140" width="250" height="90" as="geometry" />
        </mxCell>
        <mxCell id="RlPlBZCllbLlyT69JNLf-44" value="" style="rounded=1;whiteSpace=wrap;html=1;fillColor=#f5f5f5;fontColor=#333333;gradientColor=#ffffff;strokeColor=none;" vertex="1" parent="RlPlBZCllbLlyT69JNLf-43">
          <mxGeometry width="250" height="90" as="geometry" />
        </mxCell>
        <mxCell id="RlPlBZCllbLlyT69JNLf-45" value="&lt;font style=&quot;font-size: 15px&quot;&gt;&lt;b&gt;项目(产品)经理&lt;/b&gt;&lt;/font&gt;" style="rounded=1;whiteSpace=wrap;html=1;fillColor=#dae8fc;gradientColor=#ffffff;strokeColor=none;" vertex="1" parent="RlPlBZCllbLlyT69JNLf-43">
          <mxGeometry x="10" y="20" width="140" height="50" as="geometry" />
        </mxCell>
        <mxCell id="RlPlBZCllbLlyT69JNLf-46" value="&lt;span style=&quot;font-size: 15px&quot;&gt;&lt;b&gt;项目助理&lt;/b&gt;&lt;/span&gt;" style="rounded=1;whiteSpace=wrap;html=1;fillColor=#dae8fc;gradientColor=#ffffff;strokeColor=none;" vertex="1" parent="RlPlBZCllbLlyT69JNLf-43">
          <mxGeometry x="170" y="20" width="70" height="50" as="geometry" />
        </mxCell>
        <mxCell id="RlPlBZCllbLlyT69JNLf-7" value="&lt;font style=&quot;font-size: 42px&quot;&gt;U&amp;nbsp; &amp;nbsp;I&amp;nbsp; &amp;nbsp;组&lt;/font&gt;" style="rounded=1;whiteSpace=wrap;html=1;fillColor=#fff2cc;strokeColor=#d6b656;gradientColor=#ffffff;" vertex="1" parent="RlPlBZCllbLlyT69JNLf-40">
          <mxGeometry x="-420" y="270" width="790" height="70" as="geometry" />
        </mxCell>
      </root>
    </mxGraphModel>
  </diagram>
</mxfile>
